Coordinates
version=1
nRows=34
nColumns=38
inDegrees=no

Units are S.I. units (second, meters, Newtons, ...)
If the header above contains a line with 'inDegrees', this indicates whether rotational values are in degrees (yes) or radians (no).

endheader
time	pelvis_tilt	pelvis_list	pelvis_rotation	pelvis_tx	pelvis_ty	pelvis_tz	hip_flexion_r	hip_adduction_r	hip_rotation_r	knee_angle_r	ankle_angle_r	subtalar_angle_r	mtp_angle_r	hip_flexion_l	hip_adduction_l	hip_rotation_l	knee_angle_l	ankle_angle_l	subtalar_angle_l	mtp_angle_l	lumbar_extension	lumbar_bending	lumbar_rotation	arm_flex_r	arm_add_r	arm_rot_r	elbow_flex_r	pro_sup_r	wrist_flex_r	wrist_dev_r	arm_flex_l	arm_add_l	arm_rot_l	elbow_flex_l	pro_sup_l	wrist_flex_l	wrist_dev_l
0.6	-2.97467	1.47112	-1.68268	0.598286	0.14174	0.948117	-0.0527657	0.0362248	-0.213797	0.157126	0.151728	0	0	0.381765	-0.177088	-0.13993	1.24158	0.207342	0	0	-0.245073	0.0174379	-0.0233883	-0.14977	-0.236024	0.129405	0.623918	0.272901	0	0	-0.0889987	-0.325327	0.425314	0.721905	1.22409	0	0
0.61	-2.95376	1.46864	-1.71066	0.599254	0.150959	0.948515	-0.0713663	0.0359089	-0.204595	0.146041	0.153437	0	0	0.390593	-0.174711	-0.153817	1.21028	0.212762	0	0	-0.247895	0.0130808	-0.0184983	-0.14881	-0.23574	0.126682	0.627408	0.276018	0	0	-0.0908014	-0.323587	0.427219	0.721933	1.22418	0	0
0.62	-2.93855	1.4662	-1.73277	0.600154	0.16018	0.948728	-0.0894478	0.03569	-0.196008	0.135974	0.15576	0	0	0.397977	-0.172683	-0.168258	1.17592	0.21782	0	0	-0.250644	0.00927539	-0.0142072	-0.147167	-0.235512	0.124374	0.631222	0.27889	0	0	-0.0926801	-0.321726	0.428624	0.721683	1.22458	0	0
0.63	-2.92502	1.46418	-1.75291	0.600915	0.169285	0.948722	-0.105943	0.0350466	-0.188892	0.12798	0.15929	0	0	0.404707	-0.170372	-0.183174	1.13871	0.221875	0	0	-0.253195	0.00578796	-0.0107594	-0.144459	-0.235468	0.123098	0.634829	0.281824	0	0	-0.0943722	-0.319561	0.428378	0.721292	1.22404	0	0
0.64	-2.918	1.46237	-1.76595	0.601585	0.178342	0.94853	-0.121959	0.0348898	-0.181483	0.120843	0.163385	0	0	0.410483	-0.168593	-0.198819	1.0989	0.225048	0	0	-0.255692	0.00310328	-0.00805234	-0.141015	-0.235328	0.121872	0.638279	0.285193	0	0	-0.0957173	-0.317286	0.427732	0.720533	1.22306	0	0
0.65	-2.91974	1.46095	-1.76968	0.60216	0.187271	0.948159	-0.1377	0.0356191	-0.173589	0.113799	0.167236	0	0	0.41559	-0.167961	-0.215832	1.05674	0.226961	0	0	-0.258229	0.00151564	-0.00548154	-0.137095	-0.235118	0.120683	0.641453	0.288464	0	0	-0.0962115	-0.315214	0.430355	0.718345	1.22444	0	0
0.66	-2.93067	1.46025	-1.76365	0.602636	0.196325	0.947539	-0.153265	0.0374951	-0.165362	0.106426	0.171129	0	0	0.420237	-0.169348	-0.235794	1.01265	0.227629	0	0	-0.260184	0.00122502	-0.00328498	-0.133255	-0.234765	0.118688	0.644577	0.291683	0	0	-0.0967296	-0.313049	0.432574	0.716379	1.22563	0	0
0.67	-2.94397	1.46016	-1.75401	0.602885	0.205385	0.946737	-0.168502	0.0397172	-0.157958	0.098538	0.17527	0	0	0.4241	-0.169916	-0.255991	0.965262	0.227436	0	0	-0.261558	0.0016056	-0.0025998	-0.128953	-0.234515	0.117754	0.647277	0.294015	0	0	-0.0972052	-0.310625	0.432831	0.714642	1.22416	0	0
0.68	-2.95477	1.46034	-1.74563	0.602921	0.21439	0.945801	-0.182337	0.0414095	-0.152609	0.0925254	0.180289	0	0	0.426815	-0.167425	-0.27388	0.913703	0.226749	0	0	-0.262802	0.00203153	-0.00350162	-0.123948	-0.234396	0.117979	0.649588	0.296535	0	0	-0.0974434	-0.308431	0.43415	0.712249	1.22161	0	0
0.69	-2.98686	1.46204	-1.72082	0.602531	0.223281	0.944726	-0.194929	0.0384558	-0.158986	0.0863823	0.191035	0	0	0.430148	-0.156907	-0.28591	0.85904	0.22112	0	0	-0.263411	0.00563351	-0.00212875	-0.117092	-0.236055	0.118885	0.651764	0.29898	0	0	-0.0986579	-0.305041	0.437098	0.70985	1.21906	0	0
0.7	-2.99358	1.46356	-1.71437	0.602258	0.232302	0.943427	-0.205354	0.0395851	-0.15915	0.084685	0.198524	0	0	0.431632	-0.151335	-0.300199	0.800635	0.221288	0	0	-0.263186	0.00594701	-0.00454436	-0.112331	-0.235915	0.119508	0.653647	0.301115	0	0	-0.097767	-0.303576	0.442218	0.706183	1.21778	0	0
0.71	-3.00285	1.4656	-1.70462	0.601848	0.24136	0.941972	-0.215182	0.0411433	-0.158635	0.0831984	0.20587	0	0	0.432379	-0.144627	-0.31343	0.739912	0.222358	0	0	-0.262459	0.00670624	-0.00759967	-0.10774	-0.236079	0.120894	0.655636	0.303208	0	0	-0.0966341	-0.302322	0.448989	0.701652	1.21904	0	0
0.72	-3.01103	1.46818	-1.69542	0.601324	0.250427	0.940354	-0.223877	0.0426405	-0.15829	0.0829098	0.213234	0	0	0.432269	-0.136273	-0.325767	0.676588	0.223928	0	0	-0.261294	0.00742166	-0.0112085	-0.10333	-0.236367	0.122643	0.657787	0.305269	0	0	-0.095233	-0.30096	0.454166	0.697267	1.22048	0	0
0.73	-3.01561	1.47115	-1.68953	0.600707	0.259551	0.938588	-0.231113	0.0436422	-0.158949	0.0848164	0.220932	0	0	0.43098	-0.125998	-0.3369	0.610759	0.22597	0	0	-0.259747	0.00772773	-0.0149829	-0.0995145	-0.236595	0.124036	0.660389	0.307519	0	0	-0.0935518	-0.299662	0.458474	0.692903	1.22156	0	0
0.74	-3.01194	1.47443	-1.69167	0.599993	0.268735	0.936689	-0.237049	0.0436391	-0.161019	0.088412	0.229625	0	0	0.428365	-0.113213	-0.345915	0.5422	0.228505	0	0	-0.257791	0.00714468	-0.0190488	-0.0959154	-0.236481	0.124644	0.662499	0.310123	0	0	-0.0916808	-0.29853	0.462479	0.68848	1.22288	0	0
0.75	-2.99339	1.47763	-1.70805	0.599101	0.277957	0.934709	-0.24249	0.0420925	-0.164804	0.0926887	0.240129	0	0	0.423414	-0.0964565	-0.349859	0.468817	0.22802	0	0	-0.2558	0.00511998	-0.0237568	-0.0924213	-0.235897	0.124554	0.663345	0.313352	0	0	-0.0893566	-0.29771	0.466646	0.68388	1.22552	0	0
0.76	-2.97342	1.48146	-1.72563	0.598124	0.287278	0.93251	-0.246991	0.0405747	-0.169288	0.0980303	0.251905	0	0	0.417964	-0.0786863	-0.348284	0.394607	0.226194	0	0	-0.252957	0.00309534	-0.0285677	-0.0894143	-0.235288	0.124405	0.663609	0.316669	0	0	-0.0873277	-0.29711	0.470089	0.679722	1.22961	0	0
0.77	-2.94026	1.48477	-1.75632	0.597034	0.296722	0.930248	-0.251331	0.0374335	-0.176139	0.105351	0.265667	0	0	0.40849	-0.0576551	-0.336193	0.314318	0.218304	0	0	-0.250377	-0.000188864	-0.0335363	-0.0866886	-0.234451	0.123647	0.663208	0.321978	0	0	-0.0853931	-0.2965	0.472439	0.675274	1.23692	0	0
0.78	-2.90027	1.48679	-1.79429	0.595891	0.306377	0.928023	-0.256664	0.0330038	-0.184027	0.113859	0.280351	0	0	0.392947	-0.0346284	-0.310523	0.227413	0.202448	0	0	-0.248801	-0.0042888	-0.0382787	-0.0840959	-0.233406	0.121637	0.662084	0.333625	0	0	-0.0839931	-0.295059	0.470616	0.670464	1.25197	0	0
0.79	-2.8701	1.48732	-1.82338	0.594805	0.316372	0.925831	-0.264509	0.0289206	-0.190478	0.121666	0.29408	0	0	0.37129	-0.0131445	-0.272402	0.137841	0.178905	0	0	-0.248342	-0.00809792	-0.0420138	-0.0821438	-0.232839	0.12048	0.661453	0.343727	0	0	-0.0831707	-0.293815	0.468522	0.666487	1.264	0	0
0.8	-2.85851	1.48628	-1.83531	0.59387	0.326778	0.923652	-0.27583	0.0258215	-0.196134	0.127468	0.306363	0	0	0.343827	0.00423115	-0.223606	0.0488277	0.147314	0	0	-0.249132	-0.0111265	-0.0441331	-0.0812213	-0.232901	0.120352	0.662642	0.348813	0	0	-0.083042	-0.292702	0.466435	0.662902	1.27466	0	0
0.81	-2.87399	1.48677	-1.82084	0.593174	0.337373	0.921235	-0.286379	0.0256116	-0.199506	0.132692	0.316066	0	0	0.32766	0.012111	-0.191822	0	0.128141	0	0	-0.248525	-0.0119262	-0.0449746	-0.0807944	-0.232904	0.119841	0.664977	0.348049	0	0	-0.0834164	-0.292043	0.465506	0.659763	1.27893	0	0
0.82	-2.87817	1.48309	-1.81407	0.592593	0.347458	0.918965	-0.297229	0.0306948	-0.19126	0.142057	0.317632	0	0	0.333641	0.0171529	-0.184516	0	0.127188	0	0	-0.253143	-0.0153457	-0.047172	-0.080366	-0.232511	0.121869	0.665291	0.35119	0	0	-0.0815781	-0.293038	0.464828	0.657179	1.28253	0	0
0.83	-2.89504	1.48154	-1.79897	0.592126	0.358206	0.916873	-0.308163	0.0299043	-0.192992	0.150528	0.324067	0	0	0.333873	0.0188148	-0.179599	0	0.128537	0	0	-0.255055	-0.0174106	-0.0468995	-0.0797024	-0.232242	0.123534	0.665499	0.355153	0	0	-0.0814686	-0.293083	0.462717	0.654032	1.28668	0	0
0.84	-2.90314	1.47418	-1.79385	0.592385	0.369038	0.915492	-0.324239	0.027291	-0.193072	0.16122	0.329799	0	0	0.322698	0.0230137	-0.152926	0	0.111206	0	0	-0.263012	-0.0234966	-0.0445588	-0.0784484	-0.229345	0.123749	0.663941	0.357085	0	0	-0.0808235	-0.29512	0.459417	0.651836	1.29104	0	0
0.85	-2.90126	1.47167	-1.80108	0.592157	0.380619	0.913729	-0.333915	0.0227423	-0.194753	0.174934	0.336604	0	0	0.316138	0.0253275	-0.148016	0	0.110294	0	0	-0.264342	-0.0282522	-0.0413756	-0.0785058	-0.228335	0.124566	0.662587	0.358548	0	0	-0.0824737	-0.295328	0.455018	0.649489	1.29515	0	0
0.86	-2.88926	1.4705	-1.82006	0.591938	0.392589	0.911943	-0.33988	0.0161668	-0.196159	0.19253	0.343358	0	0	0.308617	0.0280716	-0.144113	0	0.109499	0	0	-0.263269	-0.0338594	-0.0364313	-0.0795591	-0.227559	0.125718	0.660826	0.359095	0	0	-0.0849261	-0.295112	0.449754	0.647085	1.2987	0	0
0.87	-2.82953	1.48273	-1.88859	0.591244	0.404383	0.908106	-0.327716	0.00361895	-0.204811	0.215625	0.36088	0	0	0.36721	0.0162337	-0.2231	0.117218	0.167347	0	0	-0.24597	-0.039529	-0.0308417	-0.0833052	-0.228067	0.126688	0.662027	0.357271	0	0	-0.0910597	-0.29446	0.442869	0.647279	1.30345	0	0
0.88	-2.89939	1.4724	-1.8248	0.591204	0.416919	0.908343	-0.350204	-0.00131509	-0.206818	0.228816	0.360342	0	0	0.33932	0.0197364	-0.186472	0.111449	0.149474	0	0	-0.256169	-0.0402383	-0.0243924	-0.0835803	-0.22656	0.126421	0.6566	0.356055	0	0	-0.0923698	-0.29322	0.43674	0.643099	1.30484	0	0
0.89	-2.92241	1.46085	-1.80472	0.59087	0.430202	0.908015	-0.407378	0.000847642	-0.183576	0.186287	0.348394	0	0	0.332222	0.0186081	-0.193653	0.152584	0.160557	0	0	-0.264624	-0.0447743	-0.0215581	-0.0867963	-0.224673	0.126347	0.653837	0.35275	0	0	-0.0976966	-0.294436	0.428003	0.644525	1.30797	0	0
0.9	-2.90698	1.45753	-1.82642	0.590208	0.443054	0.906992	-0.413639	-0.00828433	-0.18347	0.208616	0.347917	0	0	0.331226	0.0210786	-0.195508	0.181059	0.160835	0	0	-0.2637	-0.0511465	-0.0150514	-0.0900667	-0.22404	0.126427	0.649468	0.35103	0	0	-0.101717	-0.294082	0.423006	0.643587	1.30599	0	0
0.91	-3.04544	1.45565	-1.6906	0.589069	0.456181	0.906396	-0.419351	0.00329259	-0.154339	0.235648	0.336496	0	0	0.367804	-0.0166376	-0.277547	0.298116	0.199628	0	0	-0.264635	-0.0366619	-0.0083682	-0.0940472	-0.227805	0.1282	0.646907	0.346675	0	0	-0.105128	-0.28854	0.415331	0.639571	1.30116	0	0
0.92	-2.92691	1.44803	-1.81447	0.588026	0.469372	0.90665	-0.430335	-0.0248226	-0.175085	0.260765	0.339424	0	0	0.322881	0.0204375	-0.214212	0.226872	0.133943	0	0	-0.265843	-0.0570163	-0.00590251	-0.0941925	-0.223674	0.129915	0.634837	0.344438	0	0	-0.109566	-0.289655	0.407489	0.638459	1.29547	0	0
0.93	-2.8981	1.44173	-1.84854	0.586739	0.482624	0.906969	-0.429246	-0.034604	-0.162418	0.296327	0.323703	0	0	0.307851	0.0271329	-0.216776	0.227682	0.10025	0	0	-0.267107	-0.0656147	-0.00118131	-0.0952422	-0.222895	0.132279	0.625474	0.343467	0	0	-0.113343	-0.288471	0.402764	0.63541	1.29176	0	0
